<mxfile host="app.diagrams.net" modified="2023-07-13T06:36:25.160Z" agent="Mozilla/5.0 (Windows NT 10.0; Win64; x64) AppleWebKit/537.36 (KHTML, like Gecko) Chrome/114.0.0.0 Safari/537.36" etag="4HgLuaBx_T3xUyn7DRHj" version="21.6.2" type="github">
  <diagram id="C5RBs43oDa-KdzZeNtuy" name="Page-1">
    <mxGraphModel dx="1018" dy="619" grid="1" gridSize="10" guides="1" tooltips="1" connect="1" arrows="1" fold="1" page="1" pageScale="1" pageWidth="827" pageHeight="1169" math="0" shadow="0">
      <root>
        <mxCell id="WIyWlLk6GJQsqaUBKTNV-0" />
        <mxCell id="WIyWlLk6GJQsqaUBKTNV-1" parent="WIyWlLk6GJQsqaUBKTNV-0" />
        <mxCell id="SafgMq7ar9G7Eae6TYEv-2" value="epi_cloud_agent_create" style="text;html=1;align=center;verticalAlign=middle;resizable=0;points=[];autosize=1;strokeColor=#d79b00;fillColor=#ffe6cc;" vertex="1" parent="WIyWlLk6GJQsqaUBKTNV-1">
          <mxGeometry x="80" y="150" width="150" height="30" as="geometry" />
        </mxCell>
        <mxCell id="SafgMq7ar9G7Eae6TYEv-3" value="" style="endArrow=classic;html=1;rounded=0;endFill=1;entryX=0.013;entryY=0.408;entryDx=0;entryDy=0;entryPerimeter=0;" edge="1" parent="WIyWlLk6GJQsqaUBKTNV-1" target="SafgMq7ar9G7Eae6TYEv-6">
          <mxGeometry width="50" height="50" relative="1" as="geometry">
            <mxPoint x="229" y="166" as="sourcePoint" />
            <mxPoint x="400" y="164" as="targetPoint" />
          </mxGeometry>
        </mxCell>
        <mxCell id="SafgMq7ar9G7Eae6TYEv-4" value="epi_cloud_agent_connect" style="text;html=1;align=center;verticalAlign=middle;resizable=0;points=[];autosize=1;strokeColor=#d79b00;fillColor=#ffe6cc;" vertex="1" parent="WIyWlLk6GJQsqaUBKTNV-1">
          <mxGeometry x="80" y="230" width="160" height="30" as="geometry" />
        </mxCell>
        <mxCell id="SafgMq7ar9G7Eae6TYEv-5" value="" style="endArrow=classic;html=1;rounded=0;exitX=1.002;exitY=0.559;exitDx=0;exitDy=0;exitPerimeter=0;edgeStyle=orthogonalEdgeStyle;curved=1;" edge="1" parent="WIyWlLk6GJQsqaUBKTNV-1" source="SafgMq7ar9G7Eae6TYEv-4">
          <mxGeometry width="50" height="50" relative="1" as="geometry">
            <mxPoint x="330" y="280" as="sourcePoint" />
            <mxPoint x="400" y="233" as="targetPoint" />
          </mxGeometry>
        </mxCell>
        <mxCell id="SafgMq7ar9G7Eae6TYEv-6" value="cloud_agent_thread_func" style="text;html=1;align=center;verticalAlign=middle;resizable=0;points=[];autosize=1;strokeColor=#d79b00;fillColor=#ffe6cc;" vertex="1" parent="WIyWlLk6GJQsqaUBKTNV-1">
          <mxGeometry x="320" y="90" width="160" height="30" as="geometry" />
        </mxCell>
        <mxCell id="SafgMq7ar9G7Eae6TYEv-7" value="net_protocol_iface_init" style="text;html=1;align=center;verticalAlign=middle;resizable=0;points=[];autosize=1;strokeColor=#d79b00;fillColor=#ffe6cc;" vertex="1" parent="WIyWlLk6GJQsqaUBKTNV-1">
          <mxGeometry x="320" y="160" width="140" height="30" as="geometry" />
        </mxCell>
        <mxCell id="SafgMq7ar9G7Eae6TYEv-8" value="" style="endArrow=classic;html=1;rounded=0;exitX=0.995;exitY=0.523;exitDx=0;exitDy=0;exitPerimeter=0;entryX=0.002;entryY=0.552;entryDx=0;entryDy=0;entryPerimeter=0;" edge="1" parent="WIyWlLk6GJQsqaUBKTNV-1" source="SafgMq7ar9G7Eae6TYEv-2" target="SafgMq7ar9G7Eae6TYEv-7">
          <mxGeometry width="50" height="50" relative="1" as="geometry">
            <mxPoint x="340" y="200" as="sourcePoint" />
            <mxPoint x="390" y="150" as="targetPoint" />
          </mxGeometry>
        </mxCell>
      </root>
    </mxGraphModel>
  </diagram>
</mxfile>
